<?xml version="1.0" encoding="UTF-8" standalone="no"?>
<!-- Uploaded to: SVG Repo, www.svgrepo.com, Generator: SVG Repo Mixer Tools -->

<svg
   fill="#000000"
   version="1.1"
   id="Capa_1"
   width="800px"
   height="800px"
   viewBox="0 0 968.5 968.5"
   xml:space="preserve"
   sodipodi:docname="emu-white.svg"
   inkscape:version="1.3.2 (091e20ef0f, 2023-11-25, custom)"
   xmlns:inkscape="http://www.inkscape.org/namespaces/inkscape"
   xmlns:sodipodi="http://sodipodi.sourceforge.net/DTD/sodipodi-0.dtd"
   xmlns="http://www.w3.org/2000/svg"
   xmlns:svg="http://www.w3.org/2000/svg"><defs
   id="defs1" /><sodipodi:namedview
   id="namedview1"
   pagecolor="#ffffff"
   bordercolor="#000000"
   borderopacity="0.25"
   inkscape:showpageshadow="2"
   inkscape:pageopacity="0.0"
   inkscape:pagecheckerboard="0"
   inkscape:deskcolor="#d1d1d1"
   inkscape:zoom="1.03375"
   inkscape:cx="400"
   inkscape:cy="400"
   inkscape:window-width="1920"
   inkscape:window-height="1080"
   inkscape:window-x="0"
   inkscape:window-y="0"
   inkscape:window-maximized="1"
   inkscape:current-layer="Capa_1" />
<g
   id="g1"
   style="fill:#ffffff"
   transform="matrix(-1,0,0,1,968.501,0)">
	<path
   d="m 800.3,219.621 c -51.3,-35.5 -112.7,-57.5 -175.2,-60.2 -6.6,-0.3 -13.1,-0.3 -19.699,-0.2 -76,1.8 -138.4,37.1 -201.7,75.5 -33.601,20.4 -75.7,45.6 -118.1,42 -46.4,-3.9 -73.8,-41.5 -65.2,-105 25.7,-13.1 43.1,-40.1 42.2,-71.2 -1.2,-40.5 -34.1,-73.5 -74.6,-74.8 -30.9,-1 -57.9,16.3 -71.1,41.8 l -92.7,18.5 c -14.1,2.8 -24.2,15.2 -24.2,29.5 0,0 109.4,14.9 159.3,71.7 0,54.6 -1.7,165.1 137,165.1 38.2,0 71.601,3.1 100.2,7.6 0.1,-0.5 0.3,-0.9 0.4,-1.4 14.399,-44.5 50.5,-78.5 93,-96.4 6.399,-2.7 12.899,-5 19.6,-7 48.2,-14.4 100.1,-10.6 146.7,7.7 13.7,5.4 26.1,11.5 37.1,17.9 20.601,11.8 39.5,26 57.5,41.4 2.2,1.9 4,3.5 5.4,4.8 2.899,2.6 4.5,4.1 4.5,4.1 0,0 -1.7,-1.3 -4.8,-3.6 -1.601,-1.2 -3.5,-2.6 -5.801,-4.3 -9.8,-7 -19.8,-13.7 -30.1,-19.9 -8.7,-5.2 -18.8,-10.6 -30.1,-15.8 -11.301,-5.2 -23.801,-10 -37.301,-14 -13.5,-3.9 -28.1,-6.9 -43.199,-8.3 -15.101,-1.4 -30.801,-1.2 -46.301,0.9 -15.6,2.1 -31,6.1 -45.6,12 -27.4,11 -52.9,30 -69,55 -19.2,29.9 -21.3,66.1 -11.7,99.7 4.2,14.8 10,28.101 19.7,40.2 10.2,12.7 21.6,24.1 34.5,34 21.9,46.4 53.9,68.3 86.1,77.2 l 59,122.1 c -2.399,6.101 -3.699,12.7 -3.699,19.601 0,9.3 2.399,18 6.6,25.6 l -72.6,138.8 -38.4,-2 c -25.9,0 -47.7,18.101 -53.2,42.4 -1.399,6.2 3.4,12.2 9.8,12.2 H 711 c 8,0 12.8,-9 8.3,-15.601 l -11.7,-17.2 c -5.5,-8 -14.399,-13.1 -24.1,-13.6 l -41.3,-2.2 65.9,-120.4 c 18,-8.5 30.5,-26.801 30.5,-48.101 0,-23.3 -15,-43 -35.8,-50.2 l -57.3,-88.199 c 29.9,-4.5 51.3,-14.301 51.3,-14.301 18,62.9 106.9,38.9 106.9,38.9 90.7,59.9 164.8,6 164.8,6 0,-148.299 -39.8,-309.299 -168.2,-398.299 z M 177.9,112.92 c -13.8,0 -25,-11.2 -25,-25 0,-13.8 11.2,-25 25,-25 13.8,0 25,11.2 25,25 0,13.8 -11.1,25 -25,25 z"
   id="path1"
   style="fill:#ffffff" />
</g>
</svg>
